<mxfile host="app.diagrams.net" modified="2023-12-09T11:34:13.786Z" agent="Mozilla/5.0 (Windows NT 10.0; Win64; x64) AppleWebKit/537.36 (KHTML, like Gecko) Chrome/118.0.5993.731 YaBrowser/23.11.1.731 Yowser/2.5 Safari/537.36" etag="GNMFO1RfLV8oWEe8Q4QG" version="22.1.7" type="device" pages="2">
  <diagram name="Диаграмма деятельности" id="0783ab3e-0a74-02c8-0abd-f7b4e66b4bec">
    <mxGraphModel dx="1294" dy="517" grid="0" gridSize="10" guides="1" tooltips="1" connect="1" arrows="1" fold="1" page="0" pageScale="1" pageWidth="850" pageHeight="1100" background="none" math="0" shadow="0">
      <root>
        <mxCell id="0" />
        <mxCell id="1" parent="0" />
        <mxCell id="z9uXh1xA86YdtKLNnE2--1" value="Пользователь" style="swimlane;html=1;startSize=20;rotation=-90;" parent="1" vertex="1">
          <mxGeometry x="474.52" y="-53.3" width="238.03" height="827.12" as="geometry" />
        </mxCell>
        <mxCell id="z9uXh1xA86YdtKLNnE2--36" style="edgeStyle=orthogonalEdgeStyle;rounded=0;orthogonalLoop=1;jettySize=auto;html=1;" parent="z9uXh1xA86YdtKLNnE2--1" source="z9uXh1xA86YdtKLNnE2--32" target="z9uXh1xA86YdtKLNnE2--33" edge="1">
          <mxGeometry relative="1" as="geometry" />
        </mxCell>
        <mxCell id="z9uXh1xA86YdtKLNnE2--32" value="Просмотр профиля пользователя" style="rounded=1;whiteSpace=wrap;html=1;" parent="z9uXh1xA86YdtKLNnE2--1" vertex="1">
          <mxGeometry x="-173.62" y="385.07" width="100" height="54.62" as="geometry" />
        </mxCell>
        <mxCell id="z9uXh1xA86YdtKLNnE2--38" style="edgeStyle=orthogonalEdgeStyle;rounded=0;orthogonalLoop=1;jettySize=auto;html=1;entryX=0.5;entryY=0;entryDx=0;entryDy=0;" parent="z9uXh1xA86YdtKLNnE2--1" source="z9uXh1xA86YdtKLNnE2--33" target="z9uXh1xA86YdtKLNnE2--32" edge="1">
          <mxGeometry relative="1" as="geometry">
            <Array as="points">
              <mxPoint x="-23.620000000000005" y="372.38" />
              <mxPoint x="-123.62" y="372.38" />
            </Array>
          </mxGeometry>
        </mxCell>
        <mxCell id="z9uXh1xA86YdtKLNnE2--41" style="edgeStyle=orthogonalEdgeStyle;rounded=0;orthogonalLoop=1;jettySize=auto;html=1;" parent="z9uXh1xA86YdtKLNnE2--1" source="z9uXh1xA86YdtKLNnE2--33" target="z9uXh1xA86YdtKLNnE2--35" edge="1">
          <mxGeometry relative="1" as="geometry" />
        </mxCell>
        <mxCell id="z9uXh1xA86YdtKLNnE2--35" value="Добавить пользователя в друзья" style="rounded=1;whiteSpace=wrap;html=1;" parent="z9uXh1xA86YdtKLNnE2--1" vertex="1">
          <mxGeometry x="26.38" y="386.57" width="121.62" height="51.62" as="geometry" />
        </mxCell>
        <mxCell id="z9uXh1xA86YdtKLNnE2--39" value="пользователь не найден" style="text;html=1;strokeColor=none;fillColor=none;align=center;verticalAlign=middle;whiteSpace=wrap;rounded=0;" parent="z9uXh1xA86YdtKLNnE2--1" vertex="1">
          <mxGeometry x="-136.62" y="339.38" width="140" height="40" as="geometry" />
        </mxCell>
        <mxCell id="z9uXh1xA86YdtKLNnE2--58" style="edgeStyle=orthogonalEdgeStyle;rounded=0;orthogonalLoop=1;jettySize=auto;html=1;entryX=0;entryY=0.5;entryDx=0;entryDy=0;strokeColor=#000000;" parent="z9uXh1xA86YdtKLNnE2--1" source="z9uXh1xA86YdtKLNnE2--50" target="z9uXh1xA86YdtKLNnE2--51" edge="1">
          <mxGeometry relative="1" as="geometry" />
        </mxCell>
        <mxCell id="z9uXh1xA86YdtKLNnE2--50" value="Получение постов" style="rounded=1;whiteSpace=wrap;html=1;" parent="z9uXh1xA86YdtKLNnE2--1" vertex="1">
          <mxGeometry x="329.03" y="392.38" width="100" height="40" as="geometry" />
        </mxCell>
        <mxCell id="z9uXh1xA86YdtKLNnE2--54" style="edgeStyle=orthogonalEdgeStyle;rounded=0;orthogonalLoop=1;jettySize=auto;html=1;strokeColor=#000000;exitX=1;exitY=0.5;exitDx=0;exitDy=0;" parent="z9uXh1xA86YdtKLNnE2--1" source="z9uXh1xA86YdtKLNnE2--52" target="z9uXh1xA86YdtKLNnE2--32" edge="1">
          <mxGeometry relative="1" as="geometry" />
        </mxCell>
        <mxCell id="z9uXh1xA86YdtKLNnE2--52" value="" style="ellipse;html=1;shape=startState;fillColor=#000000;strokeColor=#000000;" parent="z9uXh1xA86YdtKLNnE2--1" vertex="1">
          <mxGeometry x="-233.62" y="397.38" width="30" height="30" as="geometry" />
        </mxCell>
        <mxCell id="z9uXh1xA86YdtKLNnE2--51" value="" style="ellipse;html=1;shape=endState;fillColor=#000000;strokeColor=#000000;" parent="z9uXh1xA86YdtKLNnE2--1" vertex="1">
          <mxGeometry x="456.03" y="397.38" width="30" height="30" as="geometry" />
        </mxCell>
        <mxCell id="z9uXh1xA86YdtKLNnE2--33" value="" style="rhombus;whiteSpace=wrap;html=1;" parent="z9uXh1xA86YdtKLNnE2--1" vertex="1">
          <mxGeometry x="-43.620000000000005" y="397.38" width="40" height="30" as="geometry" />
        </mxCell>
        <mxCell id="z9uXh1xA86YdtKLNnE2--29" value="Сервер" style="swimlane;html=1;startSize=20;rotation=-90;" parent="1" vertex="1">
          <mxGeometry x="475.75" y="183.26" width="235.52" height="827" as="geometry" />
        </mxCell>
        <mxCell id="z9uXh1xA86YdtKLNnE2--47" style="edgeStyle=orthogonalEdgeStyle;rounded=0;orthogonalLoop=1;jettySize=auto;html=1;entryX=0;entryY=0.5;entryDx=0;entryDy=0;" parent="z9uXh1xA86YdtKLNnE2--29" source="z9uXh1xA86YdtKLNnE2--42" target="z9uXh1xA86YdtKLNnE2--46" edge="1">
          <mxGeometry relative="1" as="geometry">
            <mxPoint x="90.06" y="387.44" as="targetPoint" />
          </mxGeometry>
        </mxCell>
        <mxCell id="z9uXh1xA86YdtKLNnE2--42" value="Проверка добавлен ли пользователь в друзья" style="rounded=1;whiteSpace=wrap;html=1;" parent="z9uXh1xA86YdtKLNnE2--29" vertex="1">
          <mxGeometry x="-74.52" y="383.43999999999994" width="100" height="60" as="geometry" />
        </mxCell>
        <mxCell id="z9uXh1xA86YdtKLNnE2--45" style="edgeStyle=orthogonalEdgeStyle;rounded=0;orthogonalLoop=1;jettySize=auto;html=1;" parent="z9uXh1xA86YdtKLNnE2--29" source="z9uXh1xA86YdtKLNnE2--43" target="z9uXh1xA86YdtKLNnE2--42" edge="1">
          <mxGeometry relative="1" as="geometry" />
        </mxCell>
        <mxCell id="z9uXh1xA86YdtKLNnE2--43" value="Профиль пользователя" style="rounded=1;whiteSpace=wrap;html=1;" parent="z9uXh1xA86YdtKLNnE2--29" vertex="1">
          <mxGeometry x="-75.09" y="323.74" width="100.48" height="30" as="geometry" />
        </mxCell>
        <mxCell id="z9uXh1xA86YdtKLNnE2--55" style="edgeStyle=orthogonalEdgeStyle;rounded=0;orthogonalLoop=1;jettySize=auto;html=1;entryX=0;entryY=0.5;entryDx=0;entryDy=0;strokeColor=#000000;" parent="z9uXh1xA86YdtKLNnE2--29" source="z9uXh1xA86YdtKLNnE2--46" target="z9uXh1xA86YdtKLNnE2--49" edge="1">
          <mxGeometry relative="1" as="geometry">
            <Array as="points">
              <mxPoint x="90.06" y="362.44" />
            </Array>
          </mxGeometry>
        </mxCell>
        <mxCell id="z9uXh1xA86YdtKLNnE2--56" style="edgeStyle=orthogonalEdgeStyle;rounded=0;orthogonalLoop=1;jettySize=auto;html=1;entryX=0;entryY=0.5;entryDx=0;entryDy=0;strokeColor=#000000;" parent="z9uXh1xA86YdtKLNnE2--29" source="z9uXh1xA86YdtKLNnE2--46" target="z9uXh1xA86YdtKLNnE2--48" edge="1">
          <mxGeometry relative="1" as="geometry">
            <Array as="points">
              <mxPoint x="90.06" y="468.44" />
            </Array>
          </mxGeometry>
        </mxCell>
        <mxCell id="z9uXh1xA86YdtKLNnE2--46" value="" style="rhombus;whiteSpace=wrap;html=1;" parent="z9uXh1xA86YdtKLNnE2--29" vertex="1">
          <mxGeometry x="70.12" y="398.44" width="40" height="30" as="geometry" />
        </mxCell>
        <mxCell id="z9uXh1xA86YdtKLNnE2--49" value="Просмотр информации о пользователе" style="rounded=1;whiteSpace=wrap;html=1;" parent="z9uXh1xA86YdtKLNnE2--29" vertex="1">
          <mxGeometry x="140.06" y="337.51" width="110" height="50" as="geometry" />
        </mxCell>
        <mxCell id="0W8tkMs0XRIJhyc4O4X--4" style="edgeStyle=orthogonalEdgeStyle;rounded=0;orthogonalLoop=1;jettySize=auto;html=1;" parent="z9uXh1xA86YdtKLNnE2--29" source="z9uXh1xA86YdtKLNnE2--48" target="0W8tkMs0XRIJhyc4O4X--1" edge="1">
          <mxGeometry relative="1" as="geometry" />
        </mxCell>
        <mxCell id="z9uXh1xA86YdtKLNnE2--48" value="Отображение кнопки &quot;Добавить в друзья&quot;" style="rounded=1;whiteSpace=wrap;html=1;" parent="z9uXh1xA86YdtKLNnE2--29" vertex="1">
          <mxGeometry x="148.25" y="443.44" width="100" height="50" as="geometry" />
        </mxCell>
        <mxCell id="RnYUWjXc_BbfMQrNLgCo-1" value="да" style="text;html=1;strokeColor=none;fillColor=none;align=center;verticalAlign=middle;whiteSpace=wrap;rounded=0;" parent="z9uXh1xA86YdtKLNnE2--29" vertex="1">
          <mxGeometry x="48.05999999999999" y="365.55" width="60" height="30" as="geometry" />
        </mxCell>
        <mxCell id="RnYUWjXc_BbfMQrNLgCo-2" value="нет" style="text;html=1;strokeColor=none;fillColor=none;align=center;verticalAlign=middle;whiteSpace=wrap;rounded=0;" parent="z9uXh1xA86YdtKLNnE2--29" vertex="1">
          <mxGeometry x="57.079999999999984" y="431.55" width="37.98" height="30" as="geometry" />
        </mxCell>
        <mxCell id="0W8tkMs0XRIJhyc4O4X--1" value="" style="ellipse;html=1;shape=endState;fillColor=#000000;strokeColor=#000000;" parent="z9uXh1xA86YdtKLNnE2--29" vertex="1">
          <mxGeometry x="326.24999999999994" y="453.44" width="30" height="30" as="geometry" />
        </mxCell>
        <mxCell id="z9uXh1xA86YdtKLNnE2--57" style="edgeStyle=orthogonalEdgeStyle;rounded=0;orthogonalLoop=1;jettySize=auto;html=1;entryX=0;entryY=0.5;entryDx=0;entryDy=0;strokeColor=#000000;" parent="1" source="z9uXh1xA86YdtKLNnE2--49" target="z9uXh1xA86YdtKLNnE2--50" edge="1">
          <mxGeometry relative="1" as="geometry">
            <Array as="points">
              <mxPoint x="770" y="360" />
            </Array>
          </mxGeometry>
        </mxCell>
        <mxCell id="0W8tkMs0XRIJhyc4O4X--3" style="edgeStyle=orthogonalEdgeStyle;rounded=0;orthogonalLoop=1;jettySize=auto;html=1;" parent="1" source="z9uXh1xA86YdtKLNnE2--33" target="z9uXh1xA86YdtKLNnE2--43" edge="1">
          <mxGeometry relative="1" as="geometry" />
        </mxCell>
      </root>
    </mxGraphModel>
  </diagram>
  <diagram id="aT7dq3TwxHSGFJUNst0q" name="Диаграмма состояний">
    <mxGraphModel dx="1102" dy="441" grid="0" gridSize="10" guides="1" tooltips="1" connect="1" arrows="1" fold="1" page="0" pageScale="1" pageWidth="1169" pageHeight="827" math="0" shadow="0">
      <root>
        <mxCell id="0" />
        <mxCell id="1" parent="0" />
        <mxCell id="n2BCix7oN7lk6Y4YMK8M-26" style="edgeStyle=orthogonalEdgeStyle;rounded=0;orthogonalLoop=1;jettySize=auto;html=1;entryX=0;entryY=0.5;entryDx=0;entryDy=0;" parent="1" source="n2BCix7oN7lk6Y4YMK8M-27" target="n2BCix7oN7lk6Y4YMK8M-31" edge="1">
          <mxGeometry relative="1" as="geometry">
            <mxPoint x="430.92666666666696" y="359.1" as="targetPoint" />
          </mxGeometry>
        </mxCell>
        <mxCell id="n2BCix7oN7lk6Y4YMK8M-27" value="Просмотр профиля пользователя" style="rounded=1;whiteSpace=wrap;html=1;" parent="1" vertex="1">
          <mxGeometry x="300" y="329.04" width="100" height="60.08" as="geometry" />
        </mxCell>
        <mxCell id="n2BCix7oN7lk6Y4YMK8M-49" style="edgeStyle=orthogonalEdgeStyle;rounded=0;orthogonalLoop=1;jettySize=auto;html=1;entryX=0;entryY=0.5;entryDx=0;entryDy=0;strokeColor=#000000;" parent="1" source="n2BCix7oN7lk6Y4YMK8M-31" target="n2BCix7oN7lk6Y4YMK8M-34" edge="1">
          <mxGeometry relative="1" as="geometry" />
        </mxCell>
        <mxCell id="n2BCix7oN7lk6Y4YMK8M-50" style="rounded=0;orthogonalLoop=1;jettySize=auto;html=1;entryX=0;entryY=0;entryDx=0;entryDy=0;strokeColor=#000000;exitX=1;exitY=1;exitDx=0;exitDy=0;" parent="1" source="n2BCix7oN7lk6Y4YMK8M-31" target="n2BCix7oN7lk6Y4YMK8M-45" edge="1">
          <mxGeometry relative="1" as="geometry" />
        </mxCell>
        <mxCell id="n2BCix7oN7lk6Y4YMK8M-31" value="Поиск заданного пользователя" style="rounded=1;whiteSpace=wrap;html=1;" parent="1" vertex="1">
          <mxGeometry x="460" y="334.11999999999995" width="110.1" height="49.92" as="geometry" />
        </mxCell>
        <mxCell id="n2BCix7oN7lk6Y4YMK8M-33" style="edgeStyle=orthogonalEdgeStyle;rounded=0;orthogonalLoop=1;jettySize=auto;html=1;entryX=0;entryY=0.5;entryDx=0;entryDy=0;strokeColor=#000000;" parent="1" source="n2BCix7oN7lk6Y4YMK8M-34" target="n2BCix7oN7lk6Y4YMK8M-37" edge="1">
          <mxGeometry relative="1" as="geometry" />
        </mxCell>
        <mxCell id="n2BCix7oN7lk6Y4YMK8M-34" value="Просмотр постов пользователя" style="rounded=1;whiteSpace=wrap;html=1;" parent="1" vertex="1">
          <mxGeometry x="690" y="339.08" width="100" height="40" as="geometry" />
        </mxCell>
        <mxCell id="n2BCix7oN7lk6Y4YMK8M-35" style="edgeStyle=orthogonalEdgeStyle;rounded=0;orthogonalLoop=1;jettySize=auto;html=1;strokeColor=#000000;exitX=1;exitY=0.5;exitDx=0;exitDy=0;" parent="1" source="n2BCix7oN7lk6Y4YMK8M-36" target="n2BCix7oN7lk6Y4YMK8M-27" edge="1">
          <mxGeometry relative="1" as="geometry" />
        </mxCell>
        <mxCell id="n2BCix7oN7lk6Y4YMK8M-36" value="" style="ellipse;html=1;shape=startState;fillColor=#000000;strokeColor=#000000;" parent="1" vertex="1">
          <mxGeometry x="240.89999999999998" y="344.08" width="30" height="30" as="geometry" />
        </mxCell>
        <mxCell id="n2BCix7oN7lk6Y4YMK8M-37" value="" style="ellipse;html=1;shape=endState;fillColor=#000000;strokeColor=#000000;" parent="1" vertex="1">
          <mxGeometry x="849" y="344.08" width="30" height="30" as="geometry" />
        </mxCell>
        <mxCell id="n2BCix7oN7lk6Y4YMK8M-55" style="edgeStyle=orthogonalEdgeStyle;rounded=0;orthogonalLoop=1;jettySize=auto;html=1;strokeColor=#000000;" parent="1" source="n2BCix7oN7lk6Y4YMK8M-45" target="n2BCix7oN7lk6Y4YMK8M-27" edge="1">
          <mxGeometry relative="1" as="geometry" />
        </mxCell>
        <mxCell id="n2BCix7oN7lk6Y4YMK8M-45" value="Отклонение запроса поиска пользователя" style="rounded=1;whiteSpace=wrap;html=1;" parent="1" vertex="1">
          <mxGeometry x="680" y="440.00000000000006" width="110" height="50" as="geometry" />
        </mxCell>
        <mxCell id="n2BCix7oN7lk6Y4YMK8M-51" value="[пользователь найден]" style="text;html=1;strokeColor=none;fillColor=none;align=center;verticalAlign=middle;whiteSpace=wrap;rounded=0;fontSize=10;" parent="1" vertex="1">
          <mxGeometry x="558" y="332.12" width="144" height="30" as="geometry" />
        </mxCell>
        <mxCell id="n2BCix7oN7lk6Y4YMK8M-54" value="[пользователь не найден]" style="text;html=1;strokeColor=none;fillColor=none;align=center;verticalAlign=middle;whiteSpace=wrap;rounded=0;rotation=25;fontSize=10;" parent="1" vertex="1">
          <mxGeometry x="569.96" y="388.67" width="122" height="30" as="geometry" />
        </mxCell>
        <mxCell id="n2BCix7oN7lk6Y4YMK8M-56" value="Передача на повторный запрос для поиска" style="text;html=1;strokeColor=none;fillColor=none;align=center;verticalAlign=middle;whiteSpace=wrap;rounded=0;fontSize=11;" parent="1" vertex="1">
          <mxGeometry x="387" y="442" width="261" height="30" as="geometry" />
        </mxCell>
      </root>
    </mxGraphModel>
  </diagram>
</mxfile>
